<?xml version="1.0" encoding="UTF-8" standalone="no"?>
<!-- Generator: Adobe Illustrator 21.0.2, SVG Export Plug-In . SVG Version: 6.00 Build 0)  -->

<svg
   xmlns:dc="http://purl.org/dc/elements/1.1/"
   xmlns:cc="http://creativecommons.org/ns#"
   xmlns:rdf="http://www.w3.org/1999/02/22-rdf-syntax-ns#"
   xmlns:svg="http://www.w3.org/2000/svg"
   xmlns="http://www.w3.org/2000/svg"
   xmlns:sodipodi="http://sodipodi.sourceforge.net/DTD/sodipodi-0.dtd"
   xmlns:inkscape="http://www.inkscape.org/namespaces/inkscape"
   version="1.1"
   id="Layer_1"
   x="0px"
   y="0px"
   viewBox="0 0 480 480"
   style="enable-background:new 0 0 480 480;"
   xml:space="preserve"
   sodipodi:docname="PiCreatures_plain2.svg"
   inkscape:version="0.92.2 5c3e80d, 2017-08-06"><metadata
     id="metadata21"><rdf:RDF><cc:Work
         rdf:about=""><dc:format>image/svg+xml</dc:format><dc:type
           rdf:resource="http://purl.org/dc/dcmitype/StillImage" /></cc:Work></rdf:RDF></metadata><defs
     id="defs19"><marker
       inkscape:stockid="Arrow2Mstart"
       orient="auto"
       refY="0.0"
       refX="0.0"
       id="Arrow2Mstart"
       style="overflow:visible"
       inkscape:isstock="true"><path
         id="path979"
         style="fill-rule:evenodd;stroke-width:0.62500000;stroke-linejoin:round"
         d="M 8.7185878,4.0337352 L -2.2072895,0.016013256 L 8.7185884,-4.0017078 C 6.9730900,-1.6296469 6.9831476,1.6157441 8.7185878,4.0337352 z "
         transform="scale(0.6) translate(0,0)" /></marker><marker
       inkscape:stockid="Arrow2Lend"
       orient="auto"
       refY="0.0"
       refX="0.0"
       id="Arrow2Lend"
       style="overflow:visible;"
       inkscape:isstock="true"><path
         id="path976"
         style="fill-rule:evenodd;stroke-width:0.62500000;stroke-linejoin:round;"
         d="M 8.7185878,4.0337352 L -2.2072895,0.016013256 L 8.7185884,-4.0017078 C 6.9730900,-1.6296469 6.9831476,1.6157441 8.7185878,4.0337352 z "
         transform="scale(1.1) rotate(180) translate(1,0)" /></marker><marker
       inkscape:stockid="Arrow2Lstart"
       orient="auto"
       refY="0.0"
       refX="0.0"
       id="Arrow2Lstart"
       style="overflow:visible"
       inkscape:isstock="true"><path
         id="path973"
         style="fill-rule:evenodd;stroke-width:0.62500000;stroke-linejoin:round"
         d="M 8.7185878,4.0337352 L -2.2072895,0.016013256 L 8.7185884,-4.0017078 C 6.9730900,-1.6296469 6.9831476,1.6157441 8.7185878,4.0337352 z "
         transform="scale(1.1) translate(1,0)" /></marker><marker
       inkscape:stockid="Arrow1Send"
       orient="auto"
       refY="0.0"
       refX="0.0"
       id="Arrow1Send"
       style="overflow:visible;"
       inkscape:isstock="true"><path
         id="path970"
         d="M 0.0,0.0 L 5.0,-5.0 L -12.5,0.0 L 5.0,5.0 L 0.0,0.0 z "
         style="fill-rule:evenodd;stroke:#000000;stroke-width:1.0pt;"
         transform="scale(0.2) rotate(180) translate(6,0)" /></marker><marker
       inkscape:stockid="Arrow1Sstart"
       orient="auto"
       refY="0.0"
       refX="0.0"
       id="Arrow1Sstart"
       style="overflow:visible"
       inkscape:isstock="true"><path
         id="path967"
         d="M 0.0,0.0 L 5.0,-5.0 L -12.5,0.0 L 5.0,5.0 L 0.0,0.0 z "
         style="fill-rule:evenodd;stroke:#000000;stroke-width:1.0pt"
         transform="scale(0.2) translate(6,0)" /></marker><marker
       inkscape:stockid="Arrow1Mend"
       orient="auto"
       refY="0.0"
       refX="0.0"
       id="Arrow1Mend"
       style="overflow:visible;"
       inkscape:isstock="true"><path
         id="path964"
         d="M 0.0,0.0 L 5.0,-5.0 L -12.5,0.0 L 5.0,5.0 L 0.0,0.0 z "
         style="fill-rule:evenodd;stroke:#000000;stroke-width:1.0pt;"
         transform="scale(0.4) rotate(180) translate(10,0)" /></marker><marker
       inkscape:stockid="Arrow1Mstart"
       orient="auto"
       refY="0.0"
       refX="0.0"
       id="Arrow1Mstart"
       style="overflow:visible"
       inkscape:isstock="true"><path
         id="path961"
         d="M 0.0,0.0 L 5.0,-5.0 L -12.5,0.0 L 5.0,5.0 L 0.0,0.0 z "
         style="fill-rule:evenodd;stroke:#000000;stroke-width:1.0pt"
         transform="scale(0.4) translate(10,0)" /></marker><marker
       inkscape:stockid="Arrow1Lend"
       orient="auto"
       refY="0.0"
       refX="0.0"
       id="Arrow1Lend"
       style="overflow:visible;"
       inkscape:isstock="true"><path
         id="path958"
         d="M 0.0,0.0 L 5.0,-5.0 L -12.5,0.0 L 5.0,5.0 L 0.0,0.0 z "
         style="fill-rule:evenodd;stroke:#000000;stroke-width:1.0pt;"
         transform="scale(0.8) rotate(180) translate(12.5,0)" /></marker><marker
       inkscape:stockid="Arrow1Lstart"
       orient="auto"
       refY="0.0"
       refX="0.0"
       id="Arrow1Lstart"
       style="overflow:visible"
       inkscape:isstock="true"><path
         id="path955"
         d="M 0.0,0.0 L 5.0,-5.0 L -12.5,0.0 L 5.0,5.0 L 0.0,0.0 z "
         style="fill-rule:evenodd;stroke:#000000;stroke-width:1.0pt"
         transform="scale(0.8) translate(12.5,0)" /></marker></defs><sodipodi:namedview
     pagecolor="#ffffff"
     bordercolor="#666666"
     borderopacity="1"
     objecttolerance="10"
     gridtolerance="10"
     guidetolerance="10"
     inkscape:pageopacity="0"
     inkscape:pageshadow="2"
     inkscape:window-width="1280"
     inkscape:window-height="705"
     id="namedview17"
     showgrid="false"
     inkscape:zoom="0.67175144"
     inkscape:cx="240"
     inkscape:cy="271.88881"
     inkscape:window-x="0"
     inkscape:window-y="1"
     inkscape:window-maximized="1"
     inkscape:current-layer="Layer_1"
     inkscape:object-paths="true" /><style
     type="text/css"
     id="style2">
	.st0{fill:#FFFFFF;}
	.st1{fill:#0C7F99;}
</style><path
     class="st0"
     d="m 243.46441,69.954237 c 0,4.2 -1.4,8.2 -3.7,11.3 l -30.4,0.3 c -2.6,-3.1 -4,-7.3 -4,-11.6 0,-10.5 8.5,-19 19,-19 10.6,-0.1 19.1,8.5 19.1,19 z"
     id="path4"
     inkscape:connector-curvature="0"
     style="fill:#ffffff" /><rect
     style="opacity:1;fill:#ffcc00;fill-opacity:1;stroke:none;stroke-width:0.00774341;stroke-miterlimit:4;stroke-dasharray:none;stroke-opacity:1"
     id="rect1297"
     width="49.125313"
     height="235.20604"
     x="102.71656"
     y="148.03198" /><path
     sodipodi:type="inkscape:offset"
     inkscape:radius="0"
     inkscape:original="M 128.33203 183.62109 C 128.27533 201.32933 128.21878 219.03785 128.16211 236.74609 C 187.55873 236.99394 246.95494 237.24043 306.35156 237.48828 C 306.40826 219.78004 306.46482 202.07152 306.52148 184.36328 L 305.52148 184.35938 L 304.52148 184.35547 C 245.79152 184.1104 187.06199 183.86616 128.33203 183.62109 z "
     style="opacity:1;fill:#ffcc00;fill-opacity:1;stroke:none;stroke-width:0.0066638;stroke-miterlimit:4;stroke-dasharray:none;stroke-opacity:1"
     id="rect1303"
     d="m 128.33203,183.62109 c -0.0567,17.70824 -0.11325,35.41676 -0.16992,53.125 59.39662,0.24785 118.79283,0.49434 178.18945,0.74219 0.0567,-17.70824 0.11326,-35.41676 0.16992,-53.125 l -1,-0.004 -1,-0.004 c -58.72996,-0.24507 -117.45949,-0.48931 -176.18945,-0.73438 z" /><rect
     transform="matrix(-0.99974994,0.02236209,-0.01550551,-0.99987978,0,0)"
     style="opacity:1;fill:#ffcc00;fill-opacity:1;stroke:none;stroke-width:0.00720818;stroke-miterlimit:4;stroke-dasharray:none;stroke-opacity:1"
     id="rect1305"
     width="49.128597"
     height="203.8011"
     x="-323.96176"
     y="-394.2135" /><path
     class="st0"
     d="m 265.69651,172.45147 c 0,4.2 -1.4,8.2 -3.7,11.3 l -30.4,0.3 c -2.6,-3.1 -4,-7.3 -4,-11.6 0,-10.5 8.5,-19 19,-19 10.6,-0.1 19.1,8.5 19.1,19 z"
     id="path6"
     inkscape:connector-curvature="0"
     style="fill:#ffffff" /><path
     d="m 197.09651,157.55147 c -1.3,0.1 -2.3,1.1 -2.3,2.4 0,1.3 1.1,2.4 2.4,2.4 1.3,0 2.4,-1.1 2.4,-2.4 0,-1.3 -1.1,-2.4 -2.4,-2.4 0,0 -0.1,0 -0.1,0 l 2.9,-1 c 4.3,0 7.7,3.5 7.7,7.7 0,4.2 -3.5,7.7 -7.7,7.7 -4.2,0 -7.7,-3.5 -7.7,-7.7 0,-4.2 3.5,-7.7 7.7,-7.7"
     id="path8"
     inkscape:connector-curvature="0" /><path
     d="m 252.09651,157.55147 c -1.3,0.1 -2.3,1.1 -2.3,2.4 0,1.3 1.1,2.4 2.4,2.4 1.3,0 2.4,-1.1 2.4,-2.4 0,-1.3 -1.1,-2.4 -2.4,-2.4 0,0 -0.1,0 -0.1,0 l 2.9,-1 c 4.3,0 7.7,3.5 7.7,7.7 0,4.2 -3.5,7.7 -7.7,7.7 -4.2,0 -7.7,-3.5 -7.7,-7.7 0,-4.2 3.5,-7.7 7.7,-7.7"
     id="path10"
     inkscape:connector-curvature="0" /><path
     d="m 205.39651,206.85148 c 5.5,0 1.9,0.1 13.5,0 10.3,-0.1 12.4,-0.1 15.7,-0.2 0,0 -0.3,-3.1 -0.3,-3.1 -3.7,0.1 -9.3,0.2 -14.7,0.2 -3.9,0 -8.5,0 -14.6,0"
     id="path14"
     inkscape:connector-curvature="0" /></svg>